<svg xmlns="http://www.w3.org/2000/svg" viewBox="0 0 206.76 310.96" width="206.76" height="310.96"><defs><style>.a{fill:#fdc266;}.b{fill:#1d1d1b;}.c{fill:#dd6f3c;}.d{fill:#fdcc68;}.e{fill:#484443;}.f{fill:#4e4a47;}.g{fill:#3a3839;}.h{fill:#d2cfca;}.i{fill:#ede6e0;}.j{fill:#7e776f;}.k{fill:#d4cfc9;}.l{fill:#68b1f5;}.m{fill:#4e7ea6;}.n{fill:#bae4fd;}.o{fill:#c2e299;}.p{fill:#798847;}.q{fill:#ecf3c7;}.r{fill:#fa8597;}.s{fill:#dd6c5e;}.t{fill:#ffb2a8;}.u,.v{fill:none;}.v{stroke:#1d1d1b;stroke-miterlimit:10;}</style></defs><title>hdaudio</title><rect class="a" x="1.25" y="1.25" width="99.76" height="99.76" rx="15.49"/><path class="b" d="M85.52,2.5A14.26,14.26,0,0,1,99.76,16.74V85.52A14.26,14.26,0,0,1,85.52,99.76H16.74A14.26,14.26,0,0,1,2.5,85.52V16.74A14.26,14.26,0,0,1,16.74,2.5H85.52m0-2.5H16.74A16.73,16.73,0,0,0,0,16.74V85.52a16.74,16.74,0,0,0,16.74,16.74H85.52a16.75,16.75,0,0,0,16.74-16.74V16.74A16.74,16.74,0,0,0,85.52,0Z"/><ellipse class="b" cx="52.71" cy="55.74" rx="37.25" ry="39.56"/><path d="M53.56,70.16c-9.59,0-17.39-8.3-17.39-18.51S44,33.14,53.56,33.14,71,41.44,71,51.65,63.15,70.16,53.56,70.16Z"/><path class="c" d="M53.56,38.64c6.56,0,11.89,5.83,11.89,13s-5.33,13-11.89,13-11.89-5.84-11.89-13,5.33-13,11.89-13m0-11c-12.64,0-22.89,10.75-22.89,24s10.25,24,22.89,24,22.89-10.75,22.89-24-10.25-24-22.89-24Z"/><path class="d" d="M50.67,39.21A12.44,12.44,0,1,1,38.23,51.65,12.45,12.45,0,0,1,50.67,39.21m0-20A32.44,32.44,0,1,0,83.11,51.65,32.44,32.44,0,0,0,50.67,19.21Z"/><path d="M71.16,16.18a4.47,4.47,0,0,1-1.94.39,3.22,3.22,0,0,1-3.38-3.46,3.45,3.45,0,0,1,3.64-3.6,4,4,0,0,1,1.71.36l-.28,1a2.81,2.81,0,0,0-1.43-.32,2.34,2.34,0,0,0-2.39,2.56,2.32,2.32,0,0,0,2.35,2.53A3.56,3.56,0,0,0,71,15.26Z"/><path d="M71,17,74.93,6.84h.95L72,17Z"/><path d="M76.15,15.17a3.17,3.17,0,0,0,1.62.49c.9,0,1.32-.44,1.32-1s-.35-.91-1.26-1.25C76.61,13,76,12.3,76,11.49a2.1,2.1,0,0,1,2.34-2A3.44,3.44,0,0,1,80,9.92l-.31.9a2.65,2.65,0,0,0-1.39-.39c-.72,0-1.13.42-1.13.92s.41.81,1.29,1.15c1.17.45,1.78,1,1.78,2,0,1.19-.93,2-2.54,2a3.84,3.84,0,0,1-1.9-.46Z"/><path d="M87,14.59c0,.7,0,1.31.06,1.84H86l-.07-1.1h0a2.56,2.56,0,0,1-2.24,1.26c-1.07,0-2.34-.59-2.34-3v-4H82.5v3.76c0,1.29.39,2.16,1.51,2.16a1.79,1.79,0,0,0,1.63-1.12,1.85,1.85,0,0,0,.11-.63V9.65H87Z"/><path d="M88.42,16.43c0-.46.06-1.14.06-1.75V6.49H89.7v4.26h0A2.51,2.51,0,0,1,92,9.5c1.68,0,2.87,1.4,2.85,3.46,0,2.42-1.52,3.63-3,3.63a2.42,2.42,0,0,1-2.27-1.28h0l-.05,1.12Zm1.28-2.71a3.26,3.26,0,0,0,0,.45,1.91,1.91,0,0,0,1.85,1.44c1.29,0,2.06-1,2.06-2.61,0-1.36-.7-2.52-2-2.52A2,2,0,0,0,89.77,12a2.32,2.32,0,0,0-.07.51Z"/><path class="b" d="M12.77,11.9v5.44H9.05V11.9h3.72m1.5-1.5H7.55v8.44h6.72V10.4Z"/><path class="b" d="M17.21,9.19V20l-2.48-2.12V11.31l2.48-2.12m1.5-3.27-5.48,4.7v8l5.48,4.7V5.92Z"/><rect class="e" x="1.25" y="105.62" width="99.76" height="99.76" rx="15.49"/><path class="b" d="M85.52,106.87a14.26,14.26,0,0,1,14.24,14.24v68.78a14.26,14.26,0,0,1-14.24,14.24H16.74A14.26,14.26,0,0,1,2.5,189.89V121.11a14.26,14.26,0,0,1,14.24-14.24H85.52m0-2.5H16.74A16.74,16.74,0,0,0,0,121.11v68.78a16.74,16.74,0,0,0,16.74,16.74H85.52a16.75,16.75,0,0,0,16.74-16.74V121.11a16.75,16.75,0,0,0-16.74-16.74Z"/><ellipse class="b" cx="52.71" cy="160.11" rx="37.25" ry="39.56"/><path d="M53.56,174.53c-9.59,0-17.39-8.3-17.39-18.51s7.8-18.51,17.39-18.51S71,145.81,71,156,63.15,174.53,53.56,174.53Z"/><path class="f" d="M53.56,143c6.56,0,11.89,5.84,11.89,13s-5.33,13-11.89,13-11.89-5.84-11.89-13S47,143,53.56,143m0-11c-12.64,0-22.89,10.75-22.89,24s10.25,24,22.89,24,22.89-10.75,22.89-24S66.2,132,53.56,132Z"/><path class="g" d="M50.67,143.58A12.44,12.44,0,1,1,38.23,156a12.45,12.45,0,0,1,12.44-12.44m0-20A32.44,32.44,0,1,0,83.11,156a32.44,32.44,0,0,0-32.44-32.44Z"/><path class="h" d="M75.3,116.14c0-.8,0-1.48,0-2.11h1.08l0,1.33h.06a2,2,0,0,1,1.87-1.49,1.78,1.78,0,0,1,.35,0v1.17a1.67,1.67,0,0,0-.42,0,1.73,1.73,0,0,0-1.65,1.59,3.22,3.22,0,0,0-.06.57v3.62H75.3Z"/><path class="h" d="M79.88,117.64A2.17,2.17,0,0,0,82.21,120a4.45,4.45,0,0,0,1.88-.35l.21.89A5.64,5.64,0,0,1,82,121a3.15,3.15,0,0,1-3.33-3.42c0-2,1.2-3.66,3.18-3.66,2.21,0,2.8,1.95,2.8,3.2,0,.25,0,.44,0,.57Zm3.62-.88a1.77,1.77,0,0,0-1.71-2,2,2,0,0,0-1.89,2Z"/><path class="h" d="M89.42,120.81l-.1-.86h0a2.54,2.54,0,0,1-2.07,1A1.94,1.94,0,0,1,85.13,119c0-1.64,1.46-2.53,4.08-2.52v-.14a1.4,1.4,0,0,0-1.54-1.57,3.39,3.39,0,0,0-1.77.51l-.28-.82a4.27,4.27,0,0,1,2.23-.6c2.07,0,2.58,1.42,2.58,2.78v2.53a10.11,10.11,0,0,0,.11,1.63Zm-.18-3.46c-1.35,0-2.87.21-2.87,1.52a1.09,1.09,0,0,0,1.16,1.18,1.69,1.69,0,0,0,1.64-1.14,1.28,1.28,0,0,0,.07-.39Z"/><path class="h" d="M91.87,116.14c0-.8,0-1.48-.06-2.11h1.08l0,1.33H93a2,2,0,0,1,1.87-1.49,1.78,1.78,0,0,1,.35,0v1.17a1.67,1.67,0,0,0-.42,0,1.74,1.74,0,0,0-1.65,1.59,3.22,3.22,0,0,0-.06.57v3.62H91.87Z"/><path class="h" d="M12.77,116.27v5.44H9.05v-5.44h3.72m1.5-1.5H7.55v8.44h6.72v-8.44Z"/><path class="h" d="M17.21,113.56v10.85l-2.48-2.12v-6.61l2.48-2.12m1.5-3.26L13.23,115v8l5.48,4.7V110.3Z"/><rect class="i" x="1.25" y="209.95" width="99.76" height="99.76" rx="15.49"/><path class="b" d="M85.52,211.2a14.26,14.26,0,0,1,14.24,14.24v68.78a14.26,14.26,0,0,1-14.24,14.24H16.74A14.26,14.26,0,0,1,2.5,294.22V225.44A14.26,14.26,0,0,1,16.74,211.2H85.52m0-2.5H16.74A16.74,16.74,0,0,0,0,225.44v68.78A16.73,16.73,0,0,0,16.74,311H85.52a16.74,16.74,0,0,0,16.74-16.74V225.44A16.75,16.75,0,0,0,85.52,208.7Z"/><ellipse class="b" cx="52.71" cy="264.44" rx="37.25" ry="39.56"/><path d="M53.56,278.86c-9.59,0-17.39-8.3-17.39-18.51s7.8-18.51,17.39-18.51S71,250.15,71,260.35,63.15,278.86,53.56,278.86Z"/><path class="j" d="M53.56,247.34c6.56,0,11.89,5.84,11.89,13s-5.33,13-11.89,13-11.89-5.83-11.89-13,5.33-13,11.89-13m0-11c-12.64,0-22.89,10.75-22.89,24s10.25,24,22.89,24,22.89-10.75,22.89-24-10.25-24-22.89-24Z"/><path class="k" d="M50.67,247.91a12.44,12.44,0,1,1-12.44,12.44,12.45,12.45,0,0,1,12.44-12.44m0-20a32.44,32.44,0,1,0,32.44,32.44,32.44,32.44,0,0,0-32.44-32.44Z"/><path d="M74.18,223.88a3.24,3.24,0,0,0,1.63.49c.9,0,1.32-.45,1.32-1s-.35-.91-1.26-1.25c-1.22-.43-1.8-1.1-1.8-1.92a2.1,2.1,0,0,1,2.34-2,3.44,3.44,0,0,1,1.67.42l-.31.9a2.65,2.65,0,0,0-1.39-.39c-.72,0-1.13.42-1.13.92s.41.82,1.29,1.15c1.17.45,1.78,1,1.78,2.05,0,1.19-.93,2-2.54,2a3.84,3.84,0,0,1-1.9-.46Z"/><path d="M80.72,216.45a.76.76,0,1,1-1.52,0,.75.75,0,0,1,.77-.77A.73.73,0,0,1,80.72,216.45Zm-1.37,8.69v-6.78h1.23v6.78Z"/><path d="M87.94,215.19v8.2c0,.6,0,1.29,0,1.75h-1.1L86.83,224h0a2.5,2.5,0,0,1-2.31,1.33c-1.64,0-2.9-1.39-2.9-3.44,0-2.26,1.39-3.65,3-3.65a2.27,2.27,0,0,1,2.05,1h0v-4.05Zm-1.24,5.93a2.24,2.24,0,0,0,0-.52,1.83,1.83,0,0,0-1.78-1.43c-1.28,0-2,1.12-2,2.62s.67,2.51,2,2.51a1.86,1.86,0,0,0,1.81-1.47,2.31,2.31,0,0,0,0-.54Z"/><path d="M90.12,222a2.16,2.16,0,0,0,2.32,2.35,4.6,4.6,0,0,0,1.88-.34l.21.88a5.64,5.64,0,0,1-2.26.42,3.15,3.15,0,0,1-3.33-3.42c0-2,1.2-3.66,3.18-3.66,2.21,0,2.8,2,2.8,3.2a5.55,5.55,0,0,1,0,.57Zm3.61-.88a1.76,1.76,0,0,0-1.71-2,2,2,0,0,0-1.89,2Z"/><path class="b" d="M12.77,220.6V226H9.05V220.6h3.72m1.5-1.5H7.55v8.44h6.72V219.1Z"/><path class="b" d="M17.21,217.89v10.86l-2.48-2.13V220l2.48-2.13m1.5-3.26-5.48,4.7v8l5.48,4.7V214.63Z"/><rect class="l" x="105.75" y="1.25" width="99.76" height="99.76" rx="15.49"/><path class="b" d="M190,2.5a14.26,14.26,0,0,1,14.24,14.24V85.52A14.26,14.26,0,0,1,190,99.76H121.24A14.26,14.26,0,0,1,107,85.52V16.74A14.26,14.26,0,0,1,121.24,2.5H190M190,0H121.24A16.73,16.73,0,0,0,104.5,16.74V85.52a16.74,16.74,0,0,0,16.74,16.74H190a16.75,16.75,0,0,0,16.74-16.74V16.74A16.74,16.74,0,0,0,190,0Z"/><ellipse class="b" cx="157.21" cy="55.74" rx="37.25" ry="39.56"/><path d="M158.06,70.16c-9.59,0-17.39-8.3-17.39-18.51s7.8-18.51,17.39-18.51,17.39,8.3,17.39,18.51S167.65,70.16,158.06,70.16Z"/><path class="m" d="M158.06,38.64c6.56,0,11.89,5.83,11.89,13s-5.33,13-11.89,13-11.89-5.84-11.89-13,5.33-13,11.89-13m0-11c-12.64,0-22.89,10.75-22.89,24s10.25,24,22.89,24S181,64.91,181,51.65s-10.25-24-22.89-24Z"/><path class="n" d="M155.17,39.21a12.44,12.44,0,1,1-12.44,12.44,12.45,12.45,0,0,1,12.44-12.44m0-20a32.44,32.44,0,1,0,32.44,32.44,32.44,32.44,0,0,0-32.44-32.44Z"/><path d="M191.82,7.75a.77.77,0,0,1-1.53,0,.75.75,0,0,1,.77-.77A.74.74,0,0,1,191.82,7.75Zm-1.38,8.68V9.65h1.24v6.78Z"/><path d="M193.17,11.49c0-.7,0-1.27,0-1.84h1.09l.07,1.13h0a2.49,2.49,0,0,1,2.24-1.28c.94,0,2.4.56,2.4,2.89v4h-1.24v-3.9c0-1.1-.4-2-1.57-2a1.76,1.76,0,0,0-1.65,1.26,2,2,0,0,0-.08.58v4.07h-1.24Z"/><rect class="o" x="105.75" y="105.62" width="99.76" height="99.76" rx="15.49"/><path class="b" d="M190,106.87a14.26,14.26,0,0,1,14.24,14.24v68.78A14.26,14.26,0,0,1,190,204.13H121.24A14.26,14.26,0,0,1,107,189.89V121.11a14.26,14.26,0,0,1,14.24-14.24H190m0-2.5H121.24a16.74,16.74,0,0,0-16.74,16.74v68.78a16.74,16.74,0,0,0,16.74,16.74H190a16.75,16.75,0,0,0,16.74-16.74V121.11A16.75,16.75,0,0,0,190,104.37Z"/><ellipse class="b" cx="157.21" cy="160.11" rx="37.25" ry="39.56"/><path d="M158.06,174.53c-9.59,0-17.39-8.3-17.39-18.51s7.8-18.51,17.39-18.51,17.39,8.3,17.39,18.51S167.65,174.53,158.06,174.53Z"/><path class="p" d="M158.06,143c6.56,0,11.89,5.84,11.89,13s-5.33,13-11.89,13-11.89-5.84-11.89-13,5.33-13,11.89-13m0-11c-12.64,0-22.89,10.75-22.89,24s10.25,24,22.89,24S181,169.28,181,156s-10.25-24-22.89-24Z"/><path class="q" d="M155.17,143.58A12.44,12.44,0,1,1,142.73,156a12.45,12.45,0,0,1,12.44-12.44m0-20A32.44,32.44,0,1,0,187.61,156a32.44,32.44,0,0,0-32.44-32.44Z"/><path d="M188.14,117.36a3.31,3.31,0,0,1-3.38,3.6,3.23,3.23,0,0,1-3.25-3.49,3.31,3.31,0,0,1,3.36-3.6A3.22,3.22,0,0,1,188.14,117.36Zm-5.38.07c0,1.48.85,2.6,2.06,2.6s2.06-1.1,2.06-2.63c0-1.15-.58-2.6-2-2.6S182.76,116.14,182.76,117.43Z"/><path d="M194.82,119c0,.7,0,1.31.05,1.85h-1.09l-.07-1.11h0a2.54,2.54,0,0,1-2.24,1.26c-1.06,0-2.34-.59-2.34-3v-4h1.23v3.75c0,1.29.4,2.16,1.52,2.16a1.79,1.79,0,0,0,1.62-1.12,1.85,1.85,0,0,0,.11-.63V114h1.24Z"/><path d="M197.8,112.08v2h1.76V115H197.8v3.66c0,.84.23,1.32.92,1.32a2.73,2.73,0,0,0,.71-.09l.06.93a3,3,0,0,1-1.09.17,1.71,1.71,0,0,1-1.33-.52,2.53,2.53,0,0,1-.48-1.77V115h-1.05V114h1.05V112.4Z"/><rect class="r" x="105.75" y="209.95" width="99.76" height="99.76" rx="15.49"/><path class="b" d="M190,211.2a14.26,14.26,0,0,1,14.24,14.24v68.78A14.26,14.26,0,0,1,190,308.46H121.24A14.26,14.26,0,0,1,107,294.22V225.44a14.26,14.26,0,0,1,14.24-14.24H190m0-2.5H121.24a16.74,16.74,0,0,0-16.74,16.74v68.78A16.73,16.73,0,0,0,121.24,311H190a16.74,16.74,0,0,0,16.74-16.74V225.44A16.75,16.75,0,0,0,190,208.7Z"/><ellipse class="b" cx="157.21" cy="264.44" rx="37.25" ry="39.56"/><path d="M158.06,278.86c-9.59,0-17.39-8.3-17.39-18.51s7.8-18.51,17.39-18.51,17.39,8.31,17.39,18.51S167.65,278.86,158.06,278.86Z"/><path class="s" d="M158.06,247.34c6.56,0,11.89,5.84,11.89,13s-5.33,13-11.89,13-11.89-5.83-11.89-13,5.33-13,11.89-13m0-11c-12.64,0-22.89,10.75-22.89,24s10.25,24,22.89,24,22.89-10.75,22.89-24-10.25-24-22.89-24Z"/><path class="t" d="M155.17,247.91a12.44,12.44,0,1,1-12.44,12.44,12.45,12.45,0,0,1,12.44-12.44m0-20a32.44,32.44,0,1,0,32.44,32.44,32.44,32.44,0,0,0-32.44-32.44Z"/><path d="M180.81,220.19c0-.7,0-1.27-.05-1.83h1.07l.06,1.09h0a2.35,2.35,0,0,1,2.13-1.25,2,2,0,0,1,1.92,1.36h0a2.77,2.77,0,0,1,.76-.88,2.28,2.28,0,0,1,1.49-.48c.9,0,2.23.59,2.23,3v4h-1.2V221.3c0-1.3-.48-2.09-1.47-2.09a1.6,1.6,0,0,0-1.46,1.12,2,2,0,0,0-.1.62v4.19h-1.2v-4.06c0-1.08-.48-1.87-1.42-1.87a1.86,1.86,0,0,0-1.62,1.84v4.09h-1.21Z"/><path d="M193.32,216.45a.77.77,0,0,1-1.53,0,.75.75,0,0,1,.77-.77A.74.74,0,0,1,193.32,216.45Zm-1.38,8.69v-6.78h1.24v6.78Z"/><path d="M199.5,224.89a4.63,4.63,0,0,1-1.94.39,3.22,3.22,0,0,1-3.38-3.46,3.44,3.44,0,0,1,3.64-3.6,4.07,4.07,0,0,1,1.71.35l-.28,1a2.81,2.81,0,0,0-1.43-.32,2.56,2.56,0,0,0,0,5.1,3.4,3.4,0,0,0,1.51-.34Z"/><path class="u" d="M112.64,21.46a8.12,8.12,0,1,0-2.38-5.75A8.09,8.09,0,0,0,112.64,21.46Z"/><path class="u" d="M126.51,15.71a8.1,8.1,0,0,1-2.38,5.75l1.27,1.27a9.91,9.91,0,0,0,0-14L124.13,10A8.09,8.09,0,0,1,126.51,15.71Z"/><path class="u" d="M110.26,15.71A8.09,8.09,0,0,1,112.64,10L111.37,8.7a9.91,9.91,0,0,0,0,14l1.27-1.27A8.1,8.1,0,0,1,110.26,15.71Z"/><path class="b" d="M118.38,23.84a8.09,8.09,0,0,1-5.74-2.38l-1.27,1.27a9.91,9.91,0,0,0,14,0l-1.27-1.27A8.1,8.1,0,0,1,118.38,23.84Z"/><path class="b" d="M111.37,8.7,112.64,10a8.12,8.12,0,0,1,11.49,0L125.4,8.7a9.91,9.91,0,0,0-14,0Z"/><path class="b" d="M115.09,12.42a4.65,4.65,0,0,1,6.59,0L123,11.14a6.48,6.48,0,0,0-9.15,0Z"/><path class="b" d="M118.38,20.38A4.62,4.62,0,0,1,115.09,19l-1.28,1.28a6.48,6.48,0,0,0,9.15,0L121.68,19A4.62,4.62,0,0,1,118.38,20.38Z"/><circle class="b" cx="118.38" cy="15.71" r="2.21"/><polygon class="b" points="139.42 14.14 131.6 14.14 131.6 11.28 123.19 15.71 131.6 20.15 131.6 17.29 139.42 17.29 139.42 14.14"/><path class="u" d="M112.68,125.83a8.12,8.12,0,1,0-2.38-5.74A8.09,8.09,0,0,0,112.68,125.83Z"/><path class="u" d="M126.55,120.09a8.09,8.09,0,0,1-2.38,5.74l1.27,1.27a9.91,9.91,0,0,0,0-14l-1.27,1.27A8.1,8.1,0,0,1,126.55,120.09Z"/><path class="u" d="M110.3,120.09a8.1,8.1,0,0,1,2.38-5.75l-1.27-1.27a9.91,9.91,0,0,0,0,14l1.27-1.27A8.09,8.09,0,0,1,110.3,120.09Z"/><path class="b" d="M118.42,128.21a8.09,8.09,0,0,1-5.74-2.38l-1.27,1.27a9.91,9.91,0,0,0,14,0l-1.27-1.27A8.1,8.1,0,0,1,118.42,128.21Z"/><path class="b" d="M111.41,113.07l1.27,1.27a8.12,8.12,0,0,1,11.49,0l1.27-1.27a9.91,9.91,0,0,0-14,0Z"/><path class="b" d="M115.12,116.79a4.66,4.66,0,0,1,6.6,0l1.28-1.28a6.48,6.48,0,0,0-9.15,0Z"/><path class="b" d="M118.42,124.75a4.64,4.64,0,0,1-3.3-1.37l-1.27,1.28a6.48,6.48,0,0,0,9.15,0l-1.28-1.28A4.62,4.62,0,0,1,118.42,124.75Z"/><circle class="b" cx="118.42" cy="120.09" r="2.21"/><polygon class="b" points="123.23 121.66 131.05 121.66 131.05 124.52 139.46 120.08 131.05 115.65 131.05 118.51 123.23 118.51 123.23 121.66"/><path class="b" d="M123,214v1.8a8.13,8.13,0,0,1,8.13,8.12H133A9.94,9.94,0,0,0,123,214Z"/><path class="b" d="M123,219.25a4.66,4.66,0,0,1,4.67,4.66h1.8a6.47,6.47,0,0,0-6.47-6.47Z"/><path class="b" d="M119.45,226.17l1.41,1.41-6.17,5.69-.93-.94,5.69-6.16m0-2.17-7.72,8.38,3,3,8.37-7.73L119.4,224Z"/><path class="r" d="M122.8,227.44a3.31,3.31,0,1,1,3.31-3.3A3.3,3.3,0,0,1,122.8,227.44Z"/><path class="b" d="M122.8,221.58a2.56,2.56,0,1,1-2.55,2.56,2.56,2.56,0,0,1,2.55-2.56m0-1.5a4.06,4.06,0,1,0,4.06,4.06,4.05,4.05,0,0,0-4.06-4.06Z"/><path class="v" d="M125.29,226.26a7,7,0,0,1-2.86-1.76,7.1,7.1,0,0,1-1.67-2.76"/></svg>